<svg width="90" height="81" viewBox="0 0 90 81" fill="none" xmlns="http://www.w3.org/2000/svg">
<path d="M16.1177 16.709C12.6225 26.0296 8.57388 46.826 20.3411 55.4475C35.0501 66.2244 50.3092 59.7033 52.3804 58.7971C54.7106 57.7777 69.7108 49.6222 65.0506 22.3887C59.4194 27.4374 42.623 37.9715 21.7974 39.4278" stroke="#B59177" stroke-width="2"/>
<path d="M13.0593 42.1948C18.3992 48.7969 34.584 60.7194 57.7688 55.0106" stroke="#B59177" stroke-width="2"/>
<path d="M12.9138 33.4568C20.0013 39.7676 40.2637 50.4959 64.6137 42.923" stroke="#B59177" stroke-width="2"/>
<path d="M15.972 16.8545C19.807 23.2624 33.3898 34.6218 57.0406 28.2139" stroke="#B59177" stroke-width="2"/>
<path d="M25.4382 21.2237C30.2927 24.282 43.1764 29.0879 55.8756 23.8451C52.1377 19.4761 40.8171 12.8352 25.4382 21.2237Z" fill="#B59177" stroke="#B59177" stroke-width="2"/>
<path d="M59.2252 3.3107C60.2738 7.97097 55.8757 11.9516 53.5455 13.3594L60.8272 15.6896C66.6526 12.1943 68.8856 5.10685 69.274 2L59.2252 3.3107Z" stroke="#B59177" stroke-width="2"/>
<path d="M40.584 70.0108C7.61262 72.1079 2.67079 59.1368 4.3213 52.3892C-6.01869 64.3311 8.10778 82.244 42.186 79.7683C69.4486 77.7876 83.9343 69.0399 87.7693 64.9136L79.0313 57.9232C64.8175 66.3117 47.4774 69.4768 40.584 70.0108Z" stroke="#B59177" stroke-width="2"/>
</svg>
