<?xml version="1.0" encoding="utf-8"?>
<!-- Generator: Adobe Illustrator 25.2.3, SVG Export Plug-In . SVG Version: 6.00 Build 0)  -->
<svg version="1.1" xmlns="http://www.w3.org/2000/svg" xmlns:xlink="http://www.w3.org/1999/xlink" x="0px" y="0px"
	 viewBox="0 0 1000 1000" style="enable-background:new 0 0 1000 1000;" xml:space="preserve">
<style type="text/css">
	.st0{fill:none;stroke:#000000;stroke-miterlimit:10;}
	.st1{fill:#010202;stroke:#000000;stroke-miterlimit:10;}
</style>
<g id="Слой_1">
</g>
<g id="Слой_2">
	<path class="st0" d="M298.37,455.92c294.13-36.77,426.98-170.75,426.98-170.75s25.53,171.57-29.62,264.51
		s-152.17,118.47-177.7,122.55c-25.53,4.09-204.26,16.34-280.85-107.23s0-337.02,0-337.02s109.16,200.48,421.44,107.43"/>
	<path class="st0" d="M204.16,391.81c0,0,106.03,97.11,246.46,115.49c140.43,18.38,257.83-15.46,268.56-17.5"/>
	<path class="st0" d="M206.78,476.19c0,0,56.43,86.77,186.13,126.09s248.56,11.09,248.56,11.09"/>
	<path class="st0" d="M117.17,588.23c0,0-19.15,122.55,167.74,160.85c186.89,38.3,385.28-26.04,392.17-29.11
		c6.89-3.06,128.68-48.26,183.83-79.66l87.32,67.4c0,0-76.6,73.53-263.49,121.02s-359.23,22.98-411.32,9.96
		c-52.09-13.02-103.7-36.6-153.7-90.21C69.72,694.87,90.45,613.68,117.17,588.23"/>
	<path class="st0" d="M603.81,196.83c0,0,75.06-45.45,62.81-99.57L766.7,83.47c0,0-7.15,78.64-84.26,138.38L603.81,196.83z"/>
	<path class="st1" d="M311.72,273.43c0,0,96-64.85,198.13-45.45s138.38,75.06,138.38,75.06S497.6,386.79,311.72,273.43"/>
</g>
</svg>
